<svg width="23" height="23" viewBox="0 0 23 23" fill="none" xmlns="http://www.w3.org/2000/svg">
<g clip-path="url(#clip0_2_113)">
<path fill-rule="evenodd" clip-rule="evenodd" d="M21.2348 11.3784C21.2348 13.9064 20.2305 16.3309 18.4429 18.1186C16.6553 19.9062 14.2308 20.9104 11.7027 20.9104C9.17462 20.9104 6.7501 19.9062 4.96248 18.1186C3.17487 16.3309 2.1706 13.9064 2.1706 11.3784C2.1706 8.85028 3.17487 6.42576 4.96248 4.63814C6.7501 2.85053 9.17462 1.84626 11.7027 1.84626C14.2308 1.84626 16.6553 2.85053 18.4429 4.63814C20.2305 6.42576 21.2348 8.85028 21.2348 11.3784ZM23 11.3784C23 14.3746 21.8097 17.2481 19.6911 19.3667C17.5724 21.4854 14.6989 22.6756 11.7027 22.6756C8.70646 22.6756 5.83295 21.4854 3.7143 19.3667C1.59564 17.2481 0.405396 14.3746 0.405396 11.3784C0.405396 8.38212 1.59564 5.50861 3.7143 3.38996C5.83295 1.2713 8.70646 0.0810547 11.7027 0.0810547C14.6989 0.0810547 17.5724 1.2713 19.6911 3.38996C21.8097 5.50861 23 8.38212 23 11.3784ZM10.9542 7.89031L13.3832 10.3192H6.05404V12.4375H13.3832L10.9542 14.8664L12.4511 16.3633L16.6876 12.1268C16.886 11.9282 16.9974 11.659 16.9974 11.3784C16.9974 11.0977 16.886 10.8285 16.6876 10.6299L12.4511 6.39342L10.9542 7.89031Z" fill="#45485F"/>
</g>
<defs>
<clipPath id="clip0_2_113">
<rect width="22.5946" height="22.5946" fill="white" transform="translate(0.405396 0.0810547)"/>
</clipPath>
</defs>
</svg>
