<svg width="539" height="143" viewBox="0 0 539 143" fill="none" xmlns="http://www.w3.org/2000/svg">
<path d="M108.672 19.9713C101.71 33.1299 95.067 66.9157 124.186 96.7894C134.727 85.2904 146.383 53.8282 108.672 19.9713Z" fill="#2F311B"/>
<path d="M132.086 127.517C127.443 112.234 135.542 74.6231 203.01 32.9713C198.023 65.6089 176.445 127.517 132.086 127.517Z" fill="#2F311B"/>
<path d="M116.372 131.563C42.0327 139.902 -1.48995 57.2242 1.00902 12.1215C8.14291 13.3191 46.3832 28.1399 84.4716 65.8231C120.686 109.189 131.487 129.868 116.372 131.563Z" fill="#2F311B"/>
<path d="M273.915 110.158V118.727H247.072V110.158H273.915ZM250.624 65.407V118.727H239.638V65.407H250.624ZM296.292 119.46C293.216 119.46 290.457 118.971 288.016 117.995C285.575 116.994 283.499 115.615 281.79 113.857C280.106 112.099 278.812 110.06 277.909 107.741C277.005 105.397 276.554 102.907 276.554 100.27V98.8055C276.554 95.8026 276.981 93.056 277.835 90.5657C278.69 88.0755 279.911 85.9149 281.498 84.0838C283.109 82.2527 285.062 80.8489 287.357 79.8724C289.652 78.8714 292.24 78.3709 295.121 78.3709C297.928 78.3709 300.418 78.8348 302.591 79.7625C304.764 80.6902 306.583 82.0086 308.048 83.7176C309.537 85.4266 310.66 87.4774 311.417 89.8699C312.174 92.2381 312.552 94.8748 312.552 97.7801V102.175H281.058V95.1434H302.188V94.3377C302.188 92.8729 301.92 91.5667 301.383 90.4193C300.87 89.2474 300.089 88.3196 299.039 87.636C297.989 86.9525 296.646 86.6107 295.011 86.6107C293.619 86.6107 292.423 86.9158 291.422 87.5262C290.421 88.1365 289.603 88.991 288.968 90.0897C288.358 91.1883 287.894 92.4822 287.577 93.9715C287.284 95.4363 287.137 97.0477 287.137 98.8055V100.27C287.137 101.857 287.357 103.322 287.796 104.665C288.26 106.008 288.907 107.167 289.737 108.144C290.592 109.12 291.617 109.877 292.813 110.414C294.034 110.951 295.414 111.22 296.952 111.22C298.856 111.22 300.626 110.854 302.262 110.121C303.922 109.365 305.35 108.229 306.546 106.716L311.673 112.282C310.843 113.478 309.708 114.626 308.268 115.724C306.852 116.823 305.143 117.726 303.141 118.434C301.139 119.118 298.856 119.46 296.292 119.46ZM338.445 109.792V92.1404C338.445 90.8709 338.237 89.7845 337.822 88.8812C337.407 87.9534 336.76 87.2332 335.881 86.7205C335.027 86.2078 333.916 85.9515 332.549 85.9515C331.377 85.9515 330.364 86.159 329.509 86.574C328.655 86.9647 327.996 87.5384 327.532 88.2952C327.068 89.0276 326.836 89.8943 326.836 90.8953H316.289C316.289 89.2108 316.68 87.6116 317.461 86.098C318.242 84.5843 319.377 83.2537 320.867 82.1063C322.356 80.9344 324.126 80.0189 326.177 79.3597C328.252 78.7005 330.571 78.3709 333.135 78.3709C336.211 78.3709 338.945 78.8836 341.338 79.909C343.73 80.9344 345.61 82.4725 346.978 84.5233C348.369 86.574 349.065 89.1375 349.065 92.2137V109.169C349.065 111.342 349.199 113.124 349.468 114.516C349.736 115.883 350.127 117.079 350.64 118.105V118.727H339.983C339.47 117.653 339.08 116.31 338.811 114.699C338.567 113.063 338.445 111.428 338.445 109.792ZM339.836 94.5941L339.91 100.563H334.014C332.622 100.563 331.414 100.722 330.388 101.039C329.363 101.357 328.52 101.808 327.861 102.394C327.202 102.956 326.714 103.615 326.396 104.372C326.103 105.129 325.957 105.959 325.957 106.862C325.957 107.765 326.165 108.583 326.58 109.316C326.995 110.024 327.593 110.585 328.374 111C329.155 111.391 330.071 111.586 331.121 111.586C332.707 111.586 334.087 111.269 335.259 110.634C336.431 109.999 337.334 109.218 337.969 108.29C338.628 107.363 338.97 106.484 338.994 105.654L341.777 110.121C341.387 111.122 340.85 112.16 340.166 113.234C339.507 114.308 338.665 115.322 337.639 116.274C336.614 117.201 335.381 117.971 333.94 118.581C332.5 119.167 330.791 119.46 328.813 119.46C326.299 119.46 324.016 118.959 321.965 117.958C319.939 116.933 318.328 115.529 317.131 113.747C315.959 111.94 315.374 109.889 315.374 107.595C315.374 105.519 315.764 103.676 316.545 102.065C317.327 100.453 318.474 99.0984 319.988 97.9998C321.526 96.8768 323.442 96.0345 325.737 95.473C328.032 94.887 330.693 94.5941 333.721 94.5941H339.836ZM369.135 118.727H358.515V75.5877C358.515 72.5848 359.101 70.0579 360.272 68.0071C361.469 65.9319 363.141 64.3694 365.29 63.3196C367.462 62.2454 370.038 61.7083 373.017 61.7083C373.993 61.7083 374.933 61.7816 375.836 61.928C376.74 62.0501 377.619 62.2088 378.473 62.4041L378.363 70.3509C377.899 70.2288 377.411 70.1434 376.898 70.0945C376.386 70.0457 375.788 70.0213 375.104 70.0213C373.834 70.0213 372.748 70.241 371.845 70.6805C370.966 71.0955 370.294 71.7181 369.831 72.5482C369.367 73.3782 369.135 74.3914 369.135 75.5877V118.727ZM377.045 79.1033V86.574H352.619V79.1033H377.045ZM416.011 110.158V118.727H389.168V110.158H416.011ZM392.72 65.407V118.727H381.734V65.407H392.72ZM418.466 99.3182V98.5491C418.466 95.6439 418.881 92.9705 419.711 90.5291C420.541 88.0633 421.75 85.9271 423.337 84.1204C424.924 82.3138 426.877 80.91 429.196 79.909C431.516 78.8836 434.177 78.3709 437.18 78.3709C440.183 78.3709 442.856 78.8836 445.2 79.909C447.543 80.91 449.509 82.3138 451.096 84.1204C452.707 85.9271 453.928 88.0633 454.758 90.5291C455.588 92.9705 456.003 95.6439 456.003 98.5491V99.3182C456.003 102.199 455.588 104.872 454.758 107.338C453.928 109.78 452.707 111.916 451.096 113.747C449.509 115.554 447.556 116.957 445.236 117.958C442.917 118.959 440.256 119.46 437.253 119.46C434.25 119.46 431.577 118.959 429.233 117.958C426.914 116.957 424.948 115.554 423.337 113.747C421.75 111.916 420.541 109.78 419.711 107.338C418.881 104.872 418.466 102.199 418.466 99.3182ZM429.013 98.5491V99.3182C429.013 100.978 429.16 102.529 429.453 103.969C429.746 105.409 430.209 106.679 430.844 107.778C431.503 108.852 432.358 109.694 433.408 110.305C434.457 110.915 435.739 111.22 437.253 111.22C438.718 111.22 439.975 110.915 441.025 110.305C442.075 109.694 442.917 108.852 443.552 107.778C444.186 106.679 444.65 105.409 444.943 103.969C445.261 102.529 445.419 100.978 445.419 99.3182V98.5491C445.419 96.9378 445.261 95.4241 444.943 94.0081C444.65 92.5677 444.174 91.2982 443.515 90.1995C442.88 89.0765 442.038 88.1976 440.988 87.5628C439.938 86.928 438.669 86.6107 437.18 86.6107C435.69 86.6107 434.421 86.928 433.371 87.5628C432.346 88.1976 431.503 89.0765 430.844 90.1995C430.209 91.2982 429.746 92.5677 429.453 94.0081C429.16 95.4241 429.013 96.9378 429.013 98.5491ZM459.3 99.3182V98.5491C459.3 95.6439 459.715 92.9705 460.545 90.5291C461.375 88.0633 462.584 85.9271 464.171 84.1204C465.758 82.3138 467.711 80.91 470.03 79.909C472.35 78.8836 475.011 78.3709 478.014 78.3709C481.017 78.3709 483.69 78.8836 486.034 79.909C488.377 80.91 490.343 82.3138 491.93 84.1204C493.541 85.9271 494.762 88.0633 495.592 90.5291C496.422 92.9705 496.837 95.6439 496.837 98.5491V99.3182C496.837 102.199 496.422 104.872 495.592 107.338C494.762 109.78 493.541 111.916 491.93 113.747C490.343 115.554 488.39 116.957 486.07 117.958C483.751 118.959 481.09 119.46 478.087 119.46C475.084 119.46 472.411 118.959 470.067 117.958C467.748 116.957 465.782 115.554 464.171 113.747C462.584 111.916 461.375 109.78 460.545 107.338C459.715 104.872 459.3 102.199 459.3 99.3182ZM469.847 98.5491V99.3182C469.847 100.978 469.994 102.529 470.287 103.969C470.58 105.409 471.043 106.679 471.678 107.778C472.337 108.852 473.192 109.694 474.242 110.305C475.291 110.915 476.573 111.22 478.087 111.22C479.552 111.22 480.809 110.915 481.859 110.305C482.909 109.694 483.751 108.852 484.386 107.778C485.02 106.679 485.484 105.409 485.777 103.969C486.095 102.529 486.253 100.978 486.253 99.3182V98.5491C486.253 96.9378 486.095 95.4241 485.777 94.0081C485.484 92.5677 485.008 91.2982 484.349 90.1995C483.714 89.0765 482.872 88.1976 481.822 87.5628C480.772 86.928 479.503 86.6107 478.014 86.6107C476.524 86.6107 475.255 86.928 474.205 87.5628C473.18 88.1976 472.337 89.0765 471.678 90.1995C471.043 91.2982 470.58 92.5677 470.287 94.0081C469.994 95.4241 469.847 96.9378 469.847 98.5491ZM512.366 62.4407V118.727H501.819V62.4407H512.366ZM537.341 79.1033L520.129 98.7322L510.901 108.071L507.056 100.453L514.38 91.1517L524.67 79.1033H537.341ZM526.392 118.727L514.673 100.417L521.96 94.0447L538.55 118.727H526.392Z" fill="#2F311B"/>
</svg>
