<svg width="203" height="48" viewBox="0 0 203 48" fill="none" xmlns="http://www.w3.org/2000/svg">
<path d="M36.519 6.70367C34.1796 11.1206 31.9472 22.4612 41.7325 32.4888C45.275 28.629 49.1918 18.0682 36.519 6.70367Z" fill="white"/>
<path d="M44.3872 42.8028C42.8272 37.6729 45.5486 25.0483 68.2211 11.0673C66.5455 22.0225 59.2942 42.8028 44.3872 42.8028Z" fill="white"/>
<path d="M39.1067 44.1611C14.125 46.9602 -0.500696 19.2081 0.33908 4.06876C2.73642 4.47076 15.587 9.44559 28.3866 22.0945C40.5564 36.6509 44.186 43.5919 39.1067 44.1611Z" fill="white"/>
<path d="M95.5865 38.0215V41.6777H84.1334V38.0215H95.5865ZM85.649 18.9277V41.6777H80.9615V18.9277H85.649ZM104.274 41.9902C102.962 41.9902 101.784 41.7819 100.743 41.3652C99.7011 40.9382 98.8157 40.3496 98.0865 39.5996C97.3678 38.8496 96.8157 37.9798 96.4303 36.9902C96.0449 35.9902 95.8522 34.9277 95.8522 33.8027V33.1777C95.8522 31.8965 96.0345 30.7246 96.399 29.6621C96.7636 28.5996 97.2845 27.6777 97.9615 26.8965C98.649 26.1152 99.4824 25.5163 100.462 25.0996C101.441 24.6725 102.545 24.459 103.774 24.459C104.972 24.459 106.034 24.6569 106.962 25.0527C107.889 25.4486 108.665 26.0111 109.29 26.7402C109.925 27.4694 110.404 28.3444 110.727 29.3652C111.05 30.3757 111.212 31.5007 111.212 32.7402V34.6152H97.774V31.6152H106.79V31.2715C106.79 30.6465 106.675 30.0892 106.446 29.5996C106.227 29.0996 105.894 28.7038 105.446 28.4121C104.998 28.1204 104.425 27.9746 103.727 27.9746C103.133 27.9746 102.623 28.1048 102.196 28.3652C101.769 28.6257 101.42 28.9902 101.149 29.459C100.889 29.9277 100.691 30.4798 100.555 31.1152C100.43 31.7402 100.368 32.4277 100.368 33.1777V33.8027C100.368 34.4798 100.462 35.1048 100.649 35.6777C100.847 36.2507 101.123 36.7454 101.477 37.1621C101.842 37.5788 102.279 37.9017 102.79 38.1309C103.311 38.36 103.899 38.4746 104.555 38.4746C105.368 38.4746 106.123 38.3184 106.821 38.0059C107.529 37.6829 108.139 37.1986 108.649 36.5527L110.837 38.9277C110.482 39.4382 109.998 39.9277 109.383 40.3965C108.779 40.8652 108.05 41.2507 107.196 41.5527C106.342 41.8444 105.368 41.9902 104.274 41.9902ZM121.399 37.8652V30.334C121.399 29.7923 121.311 29.3288 121.133 28.9434C120.956 28.5475 120.68 28.2402 120.305 28.0215C119.941 27.8027 119.467 27.6934 118.883 27.6934C118.383 27.6934 117.951 27.7819 117.587 27.959C117.222 28.1257 116.941 28.3704 116.743 28.6934C116.545 29.0059 116.446 29.3757 116.446 29.8027H111.946C111.946 29.084 112.113 28.4017 112.446 27.7559C112.779 27.11 113.264 26.5423 113.899 26.0527C114.534 25.5527 115.29 25.1621 116.165 24.8809C117.05 24.5996 118.04 24.459 119.133 24.459C120.446 24.459 121.613 24.6777 122.633 25.1152C123.654 25.5527 124.456 26.209 125.04 27.084C125.633 27.959 125.93 29.0527 125.93 30.3652V37.5996C125.93 38.5267 125.988 39.2871 126.102 39.8809C126.217 40.4642 126.383 40.9746 126.602 41.4121V41.6777H122.055C121.837 41.2194 121.67 40.6465 121.555 39.959C121.451 39.2611 121.399 38.5632 121.399 37.8652ZM121.993 31.3809L122.024 33.9277H119.508C118.915 33.9277 118.399 33.9954 117.962 34.1309C117.524 34.2663 117.165 34.459 116.883 34.709C116.602 34.9486 116.394 35.2298 116.258 35.5527C116.133 35.8757 116.071 36.2298 116.071 36.6152C116.071 37.0007 116.159 37.3496 116.337 37.6621C116.514 37.9642 116.769 38.2038 117.102 38.3809C117.436 38.5475 117.826 38.6309 118.274 38.6309C118.951 38.6309 119.54 38.4954 120.04 38.2246C120.54 37.9538 120.925 37.6204 121.196 37.2246C121.477 36.8288 121.623 36.4538 121.633 36.0996L122.821 38.0059C122.654 38.4329 122.425 38.8757 122.133 39.334C121.852 39.7923 121.493 40.2246 121.055 40.6309C120.618 41.0267 120.092 41.3548 119.477 41.6152C118.863 41.8652 118.133 41.9902 117.29 41.9902C116.217 41.9902 115.243 41.7767 114.368 41.3496C113.503 40.9121 112.816 40.3132 112.305 39.5527C111.805 38.7819 111.555 37.9069 111.555 36.9277C111.555 36.0423 111.722 35.2559 112.055 34.5684C112.389 33.8809 112.878 33.3027 113.524 32.834C114.18 32.3548 114.998 31.9954 115.977 31.7559C116.956 31.5059 118.092 31.3809 119.383 31.3809H121.993ZM133.633 41.6777H129.102V23.2715C129.102 21.9902 129.352 20.9121 129.852 20.0371C130.363 19.1517 131.076 18.485 131.993 18.0371C132.92 17.5788 134.019 17.3496 135.29 17.3496C135.706 17.3496 136.107 17.3809 136.493 17.4434C136.878 17.4954 137.253 17.5632 137.618 17.6465L137.571 21.0371C137.373 20.985 137.165 20.9486 136.946 20.9277C136.727 20.9069 136.472 20.8965 136.18 20.8965C135.639 20.8965 135.175 20.9902 134.79 21.1777C134.415 21.3548 134.128 21.6204 133.93 21.9746C133.732 22.3288 133.633 22.7611 133.633 23.2715V41.6777ZM137.008 24.7715V27.959H126.587V24.7715H137.008ZM152.774 38.0215V41.6777H141.321V38.0215H152.774ZM142.837 18.9277V41.6777H138.149V18.9277H142.837ZM152.962 33.3965V33.0684C152.962 31.8288 153.139 30.6882 153.493 29.6465C153.847 28.5944 154.363 27.6829 155.04 26.9121C155.717 26.1413 156.55 25.5423 157.54 25.1152C158.529 24.6777 159.665 24.459 160.946 24.459C162.227 24.459 163.368 24.6777 164.368 25.1152C165.368 25.5423 166.206 26.1413 166.883 26.9121C167.571 27.6829 168.092 28.5944 168.446 29.6465C168.8 30.6882 168.977 31.8288 168.977 33.0684V33.3965C168.977 34.6257 168.8 35.7663 168.446 36.8184C168.092 37.86 167.571 38.7715 166.883 39.5527C166.206 40.3236 165.373 40.9225 164.383 41.3496C163.394 41.7767 162.258 41.9902 160.977 41.9902C159.696 41.9902 158.555 41.7767 157.555 41.3496C156.566 40.9225 155.727 40.3236 155.04 39.5527C154.363 38.7715 153.847 37.86 153.493 36.8184C153.139 35.7663 152.962 34.6257 152.962 33.3965ZM157.462 33.0684V33.3965C157.462 34.1048 157.524 34.7663 157.649 35.3809C157.774 35.9954 157.972 36.5371 158.243 37.0059C158.524 37.4642 158.889 37.8236 159.337 38.084C159.784 38.3444 160.331 38.4746 160.977 38.4746C161.602 38.4746 162.139 38.3444 162.587 38.084C163.034 37.8236 163.394 37.4642 163.665 37.0059C163.936 36.5371 164.133 35.9954 164.258 35.3809C164.394 34.7663 164.462 34.1048 164.462 33.3965V33.0684C164.462 32.3809 164.394 31.735 164.258 31.1309C164.133 30.5163 163.93 29.9746 163.649 29.5059C163.378 29.0267 163.019 28.6517 162.571 28.3809C162.123 28.11 161.581 27.9746 160.946 27.9746C160.311 27.9746 159.769 28.11 159.321 28.3809C158.883 28.6517 158.524 29.0267 158.243 29.5059C157.972 29.9746 157.774 30.5163 157.649 31.1309C157.524 31.735 157.462 32.3809 157.462 33.0684ZM169.524 33.3965V33.0684C169.524 31.8288 169.701 30.6882 170.055 29.6465C170.409 28.5944 170.925 27.6829 171.602 26.9121C172.279 26.1413 173.113 25.5423 174.102 25.1152C175.092 24.6777 176.227 24.459 177.508 24.459C178.79 24.459 179.93 24.6777 180.93 25.1152C181.93 25.5423 182.769 26.1413 183.446 26.9121C184.133 27.6829 184.654 28.5944 185.008 29.6465C185.363 30.6882 185.54 31.8288 185.54 33.0684V33.3965C185.54 34.6257 185.363 35.7663 185.008 36.8184C184.654 37.86 184.133 38.7715 183.446 39.5527C182.769 40.3236 181.936 40.9225 180.946 41.3496C179.956 41.7767 178.821 41.9902 177.54 41.9902C176.258 41.9902 175.118 41.7767 174.118 41.3496C173.128 40.9225 172.29 40.3236 171.602 39.5527C170.925 38.7715 170.409 37.86 170.055 36.8184C169.701 35.7663 169.524 34.6257 169.524 33.3965ZM174.024 33.0684V33.3965C174.024 34.1048 174.087 34.7663 174.212 35.3809C174.337 35.9954 174.534 36.5371 174.805 37.0059C175.087 37.4642 175.451 37.8236 175.899 38.084C176.347 38.3444 176.894 38.4746 177.54 38.4746C178.165 38.4746 178.701 38.3444 179.149 38.084C179.597 37.8236 179.956 37.4642 180.227 37.0059C180.498 36.5371 180.696 35.9954 180.821 35.3809C180.956 34.7663 181.024 34.1048 181.024 33.3965V33.0684C181.024 32.3809 180.956 31.735 180.821 31.1309C180.696 30.5163 180.493 29.9746 180.212 29.5059C179.941 29.0267 179.581 28.6517 179.133 28.3809C178.686 28.11 178.144 27.9746 177.508 27.9746C176.873 27.9746 176.331 28.11 175.883 28.3809C175.446 28.6517 175.087 29.0267 174.805 29.5059C174.534 29.9746 174.337 30.5163 174.212 31.1309C174.087 31.735 174.024 32.3809 174.024 33.0684ZM191.305 17.6621V41.6777H186.805V17.6621H191.305ZM201.962 24.7715L194.618 33.1465L190.68 37.1309L189.04 33.8809L192.165 29.9121L196.555 24.7715H201.962ZM197.29 41.6777L192.29 33.8652L195.399 31.1465L202.477 41.6777H197.29Z" fill="white"/>
</svg>
